<svg xmlns="http://www.w3.org/2000/svg" viewBox="0 0 512 512" style="enable-background:new 0 0 512 512" xml:space="preserve"><circle style="fill:#ff8e31" cx="256" cy="256" r="256"/><path style="fill:#ed7425" d="M506.324 309.642 293.368 96.691l-4.641-4.649c-.435-.366-.73-.548-.801-.62l-2.491 3.364c.11.069 12.687 9.651 12.687 24.279 0 6.587-3.105 10.022-6.433 13.647-3.331 3.694-7.094 7.823-7.094 15.099 0 .625.036 1.208.069 1.8-13.711 5.302-29.875 2.409-40.957-8.673L108.063 276.585l223.941 223.941c87.57-27.195 154.967-100.145 174.32-190.884z"/><path style="fill:#fff" d="m329.006 153.825-57.544.013c0 21.174-17.18 38.333-38.382 38.333v191.826h134.277V192.172c-21.178 0-38.364-17.17-38.351-38.347zm-28.79 31.324c-3.167 0-5.747-2.583-5.747-5.76a5.754 5.754 0 0 1 11.51 0c0 3.183-2.578 5.768-5.763 5.76z"/><path style="fill:#34495e" d="M300.224 169.818c-5.294-.005-9.595 4.291-9.579 9.572 0 5.317 4.288 9.615 9.572 9.615 5.302 0 9.592-4.298 9.592-9.615.002-5.282-4.288-9.572-9.585-9.572zm-.008 15.331c-3.167 0-5.747-2.583-5.747-5.76a5.754 5.754 0 0 1 11.51 0c0 3.183-2.578 5.768-5.763 5.76z"/><path style="fill:#c1d354" d="m338.665 181.637-40.701-40.678c-14.976 14.981-39.265 14.981-54.246 0L108.073 276.59l94.953 94.945 135.636-135.647c-14.986-14.97-14.994-39.262.003-54.251zm-42.504 1.82c-2.245-2.248-2.245-5.878 0-8.154 2.243-2.232 5.893-2.232 8.141 0a5.782 5.782 0 0 1 0 8.154c-2.253 2.24-5.898 2.24-8.141 0z"/><path transform="rotate(134.999 225.233 254.395)" style="fill:#fff" d="M152.221 212.799h146.021v83.192H152.221z"/><path style="fill:#34495e" d="M187.988 278.103c-2.486-2.501-1.892-6.469 1.229-9.579 2.857-2.88 6.569-4.677 10.742-4.444l-.435-4.375c-4.526-.115-9.016 1.608-12.997 5.591-5.197 5.197-6.062 12.045-1.736 16.384 9.377 9.359 21.153-9.961 27.932-3.197 2.043 2.053 3.062 6.077-1.618 10.767-3.704 3.702-8.351 4.721-12.014 4.439l.556 4.488c4.6.271 9.728-1.385 14.257-5.901 7.094-7.094 5.745-13.617 1.971-17.411-9.803-9.805-21.981 9.136-27.887 3.238zM228.365 271.022l-9.055-9.06 13.66-13.652-2.9-2.924-13.673 13.66-8.466-8.463 13.944-13.926-2.923-2.929-17.198 17.221 26.263 26.268 17.203-17.216-2.911-2.913zM262.362 216.64c-7.749-7.767-18.89-8.274-26.66-.52-7.762 7.754-7.201 18.872.55 26.611 7.759 7.77 18.867 8.317 26.624.563 7.767-7.754 7.253-18.9-.514-26.654zm-2.402 23.747c-5.903 5.898-14.205 5.076-20.319-1.032-6.136-6.139-6.932-14.405-1.016-20.324 5.865-5.857 14.211-5.164 20.352.991 6.103 6.108 6.856 14.484.983 20.365zM307.011 172.605c-3.745-3.75-9.812-3.75-13.56-.008-3.75 3.75-3.75 9.833-.003 13.56 3.75 3.743 9.81 3.743 13.573 0 3.732-3.726 3.732-9.809-.01-13.552zm-10.85 10.852c-2.245-2.248-2.245-5.878 0-8.154 2.243-2.232 5.893-2.232 8.141 0a5.782 5.782 0 0 1 0 8.154c-2.253 2.24-5.898 2.24-8.141 0z"/><path style="fill:#fff" d="M288.778 147.835c0-5.688 2.778-8.737 6.013-12.268 3.533-3.899 7.534-8.274 7.534-16.504 0-16.701-13.809-27.2-14.395-27.635l-2.496 3.343c.125.105 12.705 9.664 12.705 24.292 0 6.582-3.133 10.028-6.461 13.668-3.315 3.681-7.089 7.803-7.089 15.107 0 7.521 3.505 11.75 6.897 15.864 3.42 4.145 6.653 8.036 6.653 15.677 0 1.167.932 2.107 2.079 2.107a2.11 2.11 0 0 0 2.107-2.107c0-9.152-4.052-14.039-7.626-18.358-3.176-3.832-5.921-7.16-5.921-13.186z"/></svg>